<svg data-v-0dd9719b="" version="1.0" xmlns="http://www.w3.org/2000/svg" xmlns:xlink="http://www.w3.org/1999/xlink" width="100%" height="100%" viewBox="0 0 340.000000 250.000000" preserveAspectRatio="xMidYMid meet" color-interpolation-filters="sRGB" style="margin: auto;"> <rect data-v-0dd9719b="" x="0" y="0" width="100%" height="100%" fill="#fff" fill-opacity="1" class="background"></rect> <rect data-v-0dd9719b="" x="0" y="0" width="100%" height="100%" fill="url(#watermark)" fill-opacity="1" class="watermarklayer"></rect> <g data-v-0dd9719b="" fill="#333" class="icon-text-wrapper icon-svg-group iconsvg" transform="translate(47.69499969482422,99.71256446838379)"><g class="iconsvg-imagesvg" transform="translate(0,0)"><g><rect fill="#333" fill-opacity="0" stroke-width="2" x="0" y="0" width="60" height="50.57486766242961" class="image-rect"></rect> <svg x="0" y="0" width="60" height="50.57486766242961" filtersec="colorsb5488586921" class="image-svg-svg primary" style="overflow: visible;"><svg xmlns="http://www.w3.org/2000/svg" viewBox="-0.023669390007853508 -0.000014185905456542969 163.51258850097656 137.82725524902344"><g fill-rule="evenodd"><path d="M67.27 119q-14.1-14.44-28.08-28.59-13.83-14-27.64-27.71C4.5 55.64.71 48 .09 40.82A21.43 21.43 0 0 1 6.73 23q6.81 10.69 13.86 21.81Q27.81 56.12 35.32 68c5.07 8 10.27 16.2 15.53 24.6 5.36 8.56 10.86 17.4 16.42 26.4z" fill="#aed812"></path><path d="M158.89 93.12q-6.28 7.35-13.38 15.69c-5.06 5.92-10.45 12.31-16.23 19.12-4.79 5.63-11.68 8.89-19.58 9.7-8.25.84-17.39-1-26-5.58 8.25-4.3 16-8.33 23.41-12.18L127 109.55q9-4.65 17.07-8.81c5.16-2.66 10.13-5.22 14.83-7.62z" fill="#30c2ef"></path><path d="M111.13 17.1c6.29 6 12.64 12 19 18s12.77 12.28 19.17 18.46a50.67 50.67 0 0 1 11.21 15.54C163 74.52 164 80 163.24 84.62c-4.69-6.11-9.33-12.12-13.86-18.05S140.47 55 136.1 49.33s-8.55-11.08-12.75-16.49-8.21-10.57-12.22-15.74z" fill="#f7634b"></path><path d="M19.6 16.21l25-8.27 20.9-6.79c4.86-1.57 10.82-1.47 17-.08a59.32 59.32 0 0 1 17.9 7.5c-5.3.47-10.79 1-16.49 1.51-6 .54-12.16 1.13-18.64 1.74l-21.21 2c-7.77.74-15.89 1.54-24.46 2.39z" fill="#f9ab4e"></path><path d="M50.65 88.1c-4.24-8.23-8.35-16.29-12.4-24.1-3.94-7.63-7.84-15.1-11.63-22.4-5.7-11-1.56-20.43 8.35-24.15l7.28 32.39c2.65 12 5.47 24.76 8.4 38.28z" fill="#aed812"></path><path d="M139.45 99.94L121 106.45c-6.7 2.38-13.81 4.91-21.26 7.54-12.35 4.4-28.37-.46-39.22-11.21 15.54-.58 30-1.16 43.47-1.63 12.6-.45 24.42-.83 35.51-1.21z" fill="#30c2ef"></path><path d="M123.25 35.8c3.67 5.43 7.42 11 11.2 16.59s7.79 11.55 11.75 17.48c6.36 9.47 7.06 19.38 2.11 25.13-4.62-11-9.09-21.58-13.32-31.61-4.05-9.6-8-18.79-11.74-27.59z" fill="#f7634b"></path><path d="M48.27 15.65l21.36-.48c6.51-.15 12.83-.3 18.87-.41 9-.18 19.68 4.72 27.21 11.7q-14.65-2.34-31-5-17.16-2.78-36.47-5.81z" fill="#f9ab4e"></path><path d="M69.35 33.4c6.36-3.06 14.15-3 22-.74a53 53 0 0 1 21.78 12.57c6.4 6.11 10.41 13.1 11.7 19.55 1.39 6.73 0 13-5.06 17.45s-13.27 6.06-22 4.49a51.74 51.74 0 0 1-26.47-14c-7.68-7.55-11.57-15.92-11.71-23.26a16.84 16.84 0 0 1 9.77-16zm20.05 7.18c10.84 1.6 21.08 9.72 24.24 19.09S111.27 76.81 99.75 76s-24.12-10.6-26.6-20.8S78.58 39 89.4 40.58z" fill="#f7cf0b"></path></g></svg></svg> <!----></g></g> <g transform="translate(67,4.792436599731445)"><g data-gra="path-name" fill-rule="" class="tp-name iconsvg-namesvg"><g transform="scale(1)"><g><path d="M35.75-39.43L35.75-39.43Q35.53-36.59 35.45-33.97 35.37-31.36 35.37-29.96L35.37-29.96Q35.37-28.74 35.42-27.62 35.48-26.51 35.53-25.73L35.53-25.73 34.25-25.73Q33.36-30.41 32-33.14 30.63-35.87 28.74-37.01 26.84-38.15 24.28-38.15L24.28-38.15 23-38.15 23-6.35Q23-4.12 23.47-3.01 23.95-1.89 25.23-1.53 26.51-1.17 28.96-1.11L28.96-1.11 28.96 0Q27.23-0.06 24.37-0.11 21.5-0.17 18.38-0.17L18.38-0.17Q15.32-0.17 12.59-0.11 9.86-0.06 8.19 0L8.19 0 8.19-1.11Q10.69-1.17 11.97-1.53 13.25-1.89 13.7-3.01 14.15-4.12 14.15-6.35L14.15-6.35 14.15-38.15 12.92-38.15Q10.36-38.15 8.47-37.01 6.57-35.87 5.24-33.17 3.9-30.46 2.9-25.73L2.9-25.73 1.62-25.73Q1.73-26.51 1.75-27.62 1.78-28.74 1.78-29.96L1.78-29.96Q1.78-31.36 1.7-33.97 1.62-36.59 1.39-39.43L1.39-39.43Q3.95-39.38 6.99-39.32 10.02-39.26 13.09-39.26 16.15-39.26 18.6-39.26L18.6-39.26Q21.11-39.26 24.14-39.26 27.18-39.26 30.24-39.32 33.3-39.38 35.75-39.43ZM59.31-40.21L59.31-40.21Q65.22-40.21 69.64-37.82 74.07-35.42 76.52-30.94 78.97-26.45 78.97-20.05L78.97-20.05Q78.97-13.81 76.47-9.13 73.96-4.46 69.48-1.84 64.99 0.78 59.26 0.78L59.26 0.78Q53.35 0.78 48.93-1.62 44.5-4.01 42.05-8.52 39.6-13.03 39.6-19.38L39.6-19.38Q39.6-25.62 42.13-30.3 44.67-34.98 49.09-37.59 53.52-40.21 59.31-40.21ZM59.09-39.21L59.09-39.21Q55.97-39.21 53.66-36.7 51.35-34.2 50.1-29.8 48.84-25.4 48.84-19.6L48.84-19.6Q48.84-13.7 50.26-9.33 51.68-4.96 54.11-2.59 56.53-0.22 59.48-0.22L59.48-0.22Q62.6-0.22 64.91-2.73 67.22-5.24 68.47-9.66 69.73-14.09 69.73-19.83L69.73-19.83Q69.73-25.79 68.31-30.13 66.89-34.47 64.46-36.84 62.04-39.21 59.09-39.21ZM119.29-39.43L119.29-39.43 119.29-38.37Q117.51-37.98 115.48-36.81 113.45-35.64 111.22-33.03L111.22-33.03 100.75-20.55 103.98-25.17 117.23-4.51Q118.01-3.23 118.9-2.45 119.8-1.67 121.24-1.11L121.24-1.11 121.24 0Q119.29-0.11 116.9-0.14 114.5-0.17 112.56-0.17L112.56-0.17Q111.39-0.17 109.72-0.14 108.04-0.11 105.48 0L105.48 0 105.48-1.11Q107.77-1.23 108.24-1.75 108.71-2.28 107.82-3.62L107.82-3.62 99.75-16.71Q98.97-17.99 98.35-18.63 97.74-19.27 97.13-19.52 96.52-19.77 95.51-19.83L95.51-19.83 95.51-21Q97.96-21.05 99.89-22.33 101.81-23.61 104.09-26.23L104.09-26.23 107.38-30.19Q109.49-32.69 109.85-34.5 110.22-36.31 109.13-37.31 108.04-38.32 105.82-38.37L105.82-38.37 105.82-39.43Q107.88-39.38 109.74-39.32 111.61-39.26 114.06-39.26L114.06-39.26Q117.29-39.26 119.29-39.43ZM100.02-39.43L100.02-39.43 100.02-38.32Q98.24-38.26 97.32-37.9 96.4-37.54 96.13-36.56 95.85-35.59 95.85-33.53L95.85-33.53 95.85-5.9Q95.85-3.9 96.15-2.9 96.46-1.89 97.35-1.56 98.24-1.23 100.02-1.11L100.02-1.11 100.02 0Q98.52-0.11 96.24-0.14 93.95-0.17 91.62-0.17L91.62-0.17Q88.94-0.17 86.57-0.14 84.21-0.11 82.82 0L82.82 0 82.82-1.11Q84.6-1.23 85.49-1.56 86.38-1.89 86.69-2.9 86.99-3.9 86.99-5.9L86.99-5.9 86.99-33.53Q86.99-35.59 86.69-36.56 86.38-37.54 85.46-37.9 84.54-38.26 82.82-38.32L82.82-38.32 82.82-39.43Q84.21-39.38 86.57-39.32 88.94-39.26 91.62-39.26L91.62-39.26Q93.95-39.26 96.24-39.32 98.52-39.38 100.02-39.43ZM139.79-39.43L139.79-39.43 139.79-38.32Q138.01-38.26 137.09-37.9 136.17-37.54 135.89-36.56 135.61-35.59 135.61-33.53L135.61-33.53 135.61-5.9Q135.61-3.9 135.92-2.9 136.23-1.89 137.12-1.56 138.01-1.23 139.79-1.11L139.79-1.11 139.79 0Q138.29-0.11 136-0.14 133.72-0.17 131.38-0.17L131.38-0.17Q128.65-0.17 126.34-0.14 124.03-0.11 122.58 0L122.58 0 122.58-1.11Q124.36-1.23 125.25-1.56 126.14-1.89 126.45-2.9 126.76-3.9 126.76-5.9L126.76-5.9 126.76-33.53Q126.76-35.59 126.45-36.56 126.14-37.54 125.23-37.9 124.31-38.26 122.58-38.32L122.58-38.32 122.58-39.43Q124.03-39.38 126.34-39.32 128.65-39.26 131.38-39.26L131.38-39.26Q133.72-39.26 136-39.32 138.29-39.38 139.79-39.43ZM179-39.43L179-39.43 179-38.32Q177.22-38.09 176.3-37.4 175.38-36.7 175.1-35.2 174.82-33.69 174.82-30.97L174.82-30.97 174.82-16.21Q174.82-12.59 174.32-9.58 173.82-6.57 172.54-4.4L172.54-4.4Q171.09-2 168.3-0.61 165.52 0.78 161.23 0.78L161.23 0.78Q158.67 0.78 156 0.19 153.32-0.39 151.21-2L151.21-2Q149.42-3.51 148.48-5.4 147.53-7.3 147.2-9.89 146.86-12.48 146.86-16.04L146.86-16.04 146.86-33.53Q146.86-35.59 146.56-36.56 146.25-37.54 145.36-37.9 144.47-38.26 142.69-38.32L142.69-38.32 142.69-39.43Q144.08-39.38 146.44-39.32 148.81-39.26 151.37-39.26L151.37-39.26Q153.94-39.26 156.3-39.32 158.67-39.38 160.23-39.43L160.23-39.43 160.23-38.32Q158.34-38.26 157.36-37.9 156.39-37.54 156.05-36.56 155.72-35.59 155.72-33.53L155.72-33.53 155.72-12.53Q155.72-8.8 156.39-6.27 157.05-3.73 158.75-2.45 160.45-1.17 163.4-1.17L163.4-1.17Q167.3-1.17 169.5-3.01 171.7-4.85 172.62-8.1 173.54-11.36 173.54-15.59L173.54-15.59 173.54-30.3Q173.54-33.36 173.15-35 172.76-36.65 171.62-37.37 170.48-38.09 168.14-38.32L168.14-38.32 168.14-39.43Q169.2-39.38 170.92-39.32 172.65-39.26 174.15-39.26L174.15-39.26Q175.49-39.26 176.8-39.32 178.11-39.38 179-39.43Z" transform="translate(-1.3899999856948853, 40.209999084472656)"></path></g> <!----> <!----> <!----> <!----> <!----> <!----> <!----></g></g> <!----></g></g><defs v-gra="od"></defs></svg>